# xmcd
#
# Track frame offsets:
#	150
#	42513
#	69443
#	114376
#	145111
#	194788
#	222593
#	229633
#	258496
#	287683
#
# Disc length: 4561 seconds
# Revision: 0
# Processed by: cddbd v1.5.2PL0 Copyright (c) Steve Scherf et al.
# Submitted via: dBpowerAMP V12.0
#
DISCID=9e11cf0a
DTITLE=King Crimson - Cirkus, Disc 2
DYEAR=2006
DGENRE=Progressive Rock
TTITLE0=21st Century Schizoid Man
TTITLE1=Ladies of the Road
TTITLE2=A Man a City
TTITLE3=The Court of the Crimson King
TTITLE4=Fracture
TTITLE5=Easy Money
TTITLE6=Improv: Besancon
TTITLE7=The Talking Drum
TTITLE8=Larks' Tongues in Aspic, Pt. 2
TTITLE9=Starless
EXTD=
EXTT0=
EXTT1=
EXTT2=
EXTT3=
EXTT4=
EXTT5=
EXTT6=
EXTT7=
EXTT8=
EXTT9=
PLAYORDER=
